<?xml version="1.0" encoding="UTF-8"?>
<svg width="40px" height="40px" viewBox="0 0 40 40" version="1.1" xmlns="http://www.w3.org/2000/svg" xmlns:xlink="http://www.w3.org/1999/xlink">
    <title>icon-zhihu</title>
    <g id="页面-1" stroke="none" stroke-width="1" fill="none" fill-rule="evenodd">
        <g id="VIPSpeed首页" transform="translate(-427.000000, -6483.000000)" fill="#FFFFFF" fill-rule="nonzero">
            <g id="底部" transform="translate(0.000000, 6278.000000)">
                <g id="icon-zhihu" transform="translate(427.000000, 205.000000)">
                    <path d="M22.5,28.0507745 L23.9879468,28.0507745 L24.5282627,30 L27.1467165,28.0507745 L30.8333333,28.0507745 L30.8333333,12.5 L22.5,12.5 L22.5,28.0507745 Z M24.1666667,14.1666667 L29.1666667,14.1666667 L29.1666667,26.5393013 L27.3989468,26.5393013 L25.127384,28.3333333 L24.6320808,26.5393013 L24.1666667,26.5393013 L24.1666667,14.1666667 Z M10,30.5929447 C11.1407495,30.9934752 12.4033812,30.8898924 13.4597701,30.3091148 C15.1628352,29.326627 16.4189017,24.999314 16.4189017,24.999314 L20.4418902,29.8418873 C20.4418902,29.8418873 20.8084291,27.5363159 20.3793103,26.8856906 C19.9501916,26.2350654 17.6123883,23.6150978 17.6123883,23.6150978 L16.5887612,24.4884203 L17.3173691,21.6239225 L21.6666667,21.6239225 C21.6666667,21.6239225 21.6666667,19.9384101 20.8128991,19.8423446 C19.9591315,19.7462791 17.3084291,19.8423446 17.3084291,19.8423446 L17.3084291,14.6024096 L21.2196679,14.6024096 C21.2196679,14.6024096 21.1749681,12.8557646 20.4150702,12.8557646 L14.0274585,12.8557646 L15.0197957,10 C15.0197957,10 13.4106003,10.0916989 12.8429119,11.0741867 C12.2752235,12.0566745 10.4291188,17.121945 10.4291188,17.121945 C10.4291188,17.121945 11.041507,17.4014082 12.083014,16.6503509 C12.7506782,16.1203596 13.2320448,15.3997407 13.4597701,14.5893098 L15.3550447,14.4976109 L15.4086845,19.8598111 C15.4086845,19.8598111 12.1411239,19.8117783 11.4795658,19.8598111 C10.8180077,19.9078438 10.4380587,21.641389 10.4380587,21.641389 L15.4086845,21.641389 C15.4086845,21.641389 14.9840358,24.593219 13.7056194,26.7503256 C12.4272031,28.9074322 10,30.5929447 10,30.5929447 L10,30.5929447 Z" id="形状"></path>
                    <path d="M20,39.0002272 C30.4930698,39.0002272 39.0002272,30.4930698 39.0002272,20 C39.0002272,9.50693024 30.4930698,0.999772779 20,0.999772779 C9.50693024,0.999772779 0.999772779,9.50693024 0.999772779,20 C0.999772779,30.4930698 9.50693024,39.0002272 20,39.0002272 Z M20,40 C8.95705521,40 0,31.0474892 0,20 C0,8.95251079 8.95251079,0 20,0 C31.0474892,0 40,8.95251079 40,20 C40,31.0474892 31.0429448,40 20,40 Z" id="形状"></path>
                </g>
            </g>
        </g>
    </g>
</svg>