<?xml version="1.0" encoding="UTF-8"?>
<svg width="40px" height="40px" viewBox="0 0 40 40" version="1.1" xmlns="http://www.w3.org/2000/svg" xmlns:xlink="http://www.w3.org/1999/xlink">
    <title>icon-weixin</title>
    <g id="页面-1" stroke="none" stroke-width="1" fill="none" fill-rule="evenodd">
        <g id="VIPSpeed首页" transform="translate(-367.000000, -6483.000000)" fill="#FFFFFF" fill-rule="nonzero">
            <g id="底部" transform="translate(0.000000, 6278.000000)">
                <g id="icon-weixin" transform="translate(367.000000, 205.000000)">
                    <path d="M19.709157,14.3740059 C19.0820268,14.3740059 18.5139741,14.773915 18.5139741,15.3419677 C18.5139741,15.9100204 19.0820268,16.3099296 19.709157,16.3099296 C20.2772097,16.3099296 20.6771188,15.9100204 20.6771188,15.3419677 C20.6771188,14.773915 20.2772097,14.3740059 19.709157,14.3740059 L19.709157,14.3740059 Z M14.2422177,16.3099296 C14.8102704,16.3099296 15.2101795,15.9100204 15.2101795,15.3419677 C15.2101795,14.773915 14.8102704,14.3740059 14.2422177,14.3740059 C13.674165,14.3740059 13.1015678,14.773915 13.1015678,15.3419677 C13.1015678,15.9100204 13.6696205,16.3099296 14.2422177,16.3099296 Z M23.8673029,16.4826176 C20.1635992,16.4826176 17.2597137,19.2183595 17.2597137,22.6357646 C17.2597137,23.2038173 17.3733242,23.7764145 17.4869348,24.2853897 L16.746194,24.2853897 C15.7782322,24.2853897 15.0374915,24.1127017 14.0695297,23.8854806 L11.3337878,25.2533515 L12.1290616,22.9175187 C10.1340604,21.5496478 8.99795501,19.8409452 8.99795501,17.6778005 C8.99795501,13.9740968 12.4698932,11.0702113 16.7416496,11.0702113 C20.6134969,11.0702113 23.9172915,13.4060441 24.6034992,16.5371506 C24.3762781,16.4826176 24.094524,16.4826176 23.8673029,16.4826176 Z M22.2131334,21.5496478 C22.7811861,21.5496478 23.1810952,21.2088162 23.1810952,20.8089071 C23.1810952,20.408998 22.7811861,20.0136333 22.2131334,20.0136333 C21.8132243,20.0136333 21.4178596,20.4135424 21.4178596,20.8089071 C21.4178596,21.2088162 21.8132243,21.5496478 22.2131334,21.5496478 Z M26.4848898,21.5496478 C27.0529425,21.5496478 27.4528516,21.2088162 27.4528516,20.8089071 C27.4528516,20.408998 27.0529425,20.0136333 26.4848898,20.0136333 C26.0849807,20.0136333 25.7441491,20.4135424 25.7441491,20.8089071 C25.7441491,21.2088162 26.0849807,21.5496478 26.4848898,21.5496478 Z M30.9838673,22.5176096 C30.9838673,24.2853897 29.7886844,25.8214042 28.2481254,27.0165871 L28.8161781,28.9525108 L26.7075665,27.8118609 C25.9122927,27.984549 25.1124744,28.1526926 24.3717337,28.1526926 C20.66803,28.1526926 17.7641445,25.6487162 17.7641445,22.5130652 C17.7641445,19.4364917 20.66803,16.8734379 24.3717337,16.8734379 C27.8527607,16.8779823 30.9838673,19.4410361 30.9838673,22.5176096 Z M20,39.0002272 C30.4930698,39.0002272 39.0002272,30.4930698 39.0002272,20 C39.0002272,9.50693024 30.4930698,0.999772779 20,0.999772779 C9.50693024,0.999772779 0.999772779,9.50693024 0.999772779,20 C0.999772779,30.4930698 9.50693024,39.0002272 20,39.0002272 Z M20,40 C8.95705521,40 0,31.0474892 0,20 C0,8.95251079 8.95251079,0 20,0 C31.0474892,0 40,8.95251079 40,20 C40,31.0474892 31.0429448,40 20,40 Z" id="形状"></path>
                    <path d="M19.709157,14.3740059 C19.0820268,14.3740059 18.5139741,14.773915 18.5139741,15.3419677 C18.5139741,15.9100204 19.0820268,16.3099296 19.709157,16.3099296 C20.2772097,16.3099296 20.6771188,15.9100204 20.6771188,15.3419677 C20.6771188,14.773915 20.2772097,14.3740059 19.709157,14.3740059 L19.709157,14.3740059 Z M14.2422177,16.3099296 C14.8102704,16.3099296 15.2101795,15.9100204 15.2101795,15.3419677 C15.2101795,14.773915 14.8102704,14.3740059 14.2422177,14.3740059 C13.674165,14.3740059 13.1015678,14.773915 13.1015678,15.3419677 C13.1015678,15.9100204 13.6696205,16.3099296 14.2422177,16.3099296 Z M23.8673029,16.4826176 C20.1635992,16.4826176 17.2597137,19.2183595 17.2597137,22.6357646 C17.2597137,23.2038173 17.3733242,23.7764145 17.4869348,24.2853897 L16.746194,24.2853897 C15.7782322,24.2853897 15.0374915,24.1127017 14.0695297,23.8854806 L11.3337878,25.2533515 L12.1290616,22.9175187 C10.1340604,21.5496478 8.99795501,19.8409452 8.99795501,17.6778005 C8.99795501,13.9740968 12.4698932,11.0702113 16.7416496,11.0702113 C20.6134969,11.0702113 23.9172915,13.4060441 24.6034992,16.5371506 C24.3762781,16.4826176 24.094524,16.4826176 23.8673029,16.4826176 Z M22.2131334,21.5496478 C22.7811861,21.5496478 23.1810952,21.2088162 23.1810952,20.8089071 C23.1810952,20.408998 22.7811861,20.0136333 22.2131334,20.0136333 C21.8132243,20.0136333 21.4178596,20.4135424 21.4178596,20.8089071 C21.4178596,21.2088162 21.8132243,21.5496478 22.2131334,21.5496478 Z M26.4848898,21.5496478 C27.0529425,21.5496478 27.4528516,21.2088162 27.4528516,20.8089071 C27.4528516,20.408998 27.0529425,20.0136333 26.4848898,20.0136333 C26.0849807,20.0136333 25.7441491,20.4135424 25.7441491,20.8089071 C25.7441491,21.2088162 26.0849807,21.5496478 26.4848898,21.5496478 Z M30.9838673,22.5176096 C30.9838673,24.2853897 29.7886844,25.8214042 28.2481254,27.0165871 L28.8161781,28.9525108 L26.7075665,27.8118609 C25.9122927,27.984549 25.1124744,28.1526926 24.3717337,28.1526926 C20.66803,28.1526926 17.7641445,25.6487162 17.7641445,22.5130652 C17.7641445,19.4364917 20.66803,16.8734379 24.3717337,16.8734379 C27.8527607,16.8779823 30.9838673,19.4410361 30.9838673,22.5176096 Z M20,39.0002272 C30.4930698,39.0002272 39.0002272,30.4930698 39.0002272,20 C39.0002272,9.50693024 30.4930698,0.999772779 20,0.999772779 C9.50693024,0.999772779 0.999772779,9.50693024 0.999772779,20 C0.999772779,30.4930698 9.50693024,39.0002272 20,39.0002272 Z M20,40 C8.95705521,40 0,31.0474892 0,20 C0,8.95251079 8.95251079,0 20,0 C31.0474892,0 40,8.95251079 40,20 C40,31.0474892 31.0429448,40 20,40 Z" id="形状"></path>
                </g>
            </g>
        </g>
    </g>
</svg>