<?xml version="1.0" encoding="UTF-8"?>
<svg width="40px" height="40px" viewBox="0 0 40 40" version="1.1" xmlns="http://www.w3.org/2000/svg" xmlns:xlink="http://www.w3.org/1999/xlink">
    <title>icon-weibo</title>
    <g id="页面-1" stroke="none" stroke-width="1" fill="none" fill-rule="evenodd">
        <g id="VIPSpeed首页" transform="translate(-307.000000, -6483.000000)" fill="#FFFFFF" fill-rule="nonzero">
            <g id="底部" transform="translate(0.000000, 6278.000000)">
                <g id="icon-weibo" transform="translate(307.000000, 205.000000)">
                    <path d="M27.3710884,20.7822892 C27.7372109,21.0546355 27.9948526,21.3820996 28.1440136,21.7646814 C28.2931746,22.1472632 28.354195,22.5460561 28.3270748,22.9610601 C28.2999546,23.3760641 28.205034,23.7910681 28.0423129,24.2060721 C27.8795918,24.6210761 27.6694104,24.9971735 27.4117687,25.3343642 C26.9507256,25.9439013 26.4286621,26.4626563 25.8455782,26.8906292 C25.2624943,27.318602 24.6590703,27.6752461 24.0353061,27.9605613 C23.411542,28.2458766 22.7843878,28.4695897 22.1538435,28.6317006 C21.5232993,28.7938115 20.9300454,28.9137736 20.3740816,28.9915869 C19.8181179,29.0694001 19.3197846,29.1180334 18.8790816,29.1374867 C18.4383787,29.15694 18.0959864,29.1666667 17.8519048,29.1666667 C17.6078231,29.1666667 17.282381,29.1504556 16.8755782,29.1180334 C16.4687755,29.0856112 16.0179025,29.0207668 15.5229592,28.9235003 C15.0280159,28.8262337 14.5093424,28.6900605 13.9669388,28.5149807 C13.4245351,28.3399009 12.8956916,28.1097034 12.3804082,27.8243881 C11.8651247,27.5390729 11.3735714,27.1889133 10.9057483,26.7739093 C10.4379252,26.3589053 10.0412925,25.8596036 9.71585034,25.2760043 C9.49888889,24.8999069 9.35311791,24.4978718 9.27853741,24.0698989 C9.20395692,23.641926 9.16666667,23.0972333 9.16666667,22.4358207 C9.16666667,22.1505055 9.21751701,21.8262836 9.31921769,21.4631551 C9.42091837,21.1000266 9.60058957,20.6979915 9.85823129,20.2570497 C10.115873,19.816108 10.4684354,19.3362596 10.9159184,18.8175047 C11.3634014,18.2987497 11.9329252,17.7281192 12.6244898,17.1056132 C13.3024943,16.4960761 14.004229,15.9546256 14.7296939,15.4812616 C15.4551587,15.0078977 16.2314739,14.641527 17.0586395,14.3821495 C17.438322,14.2524608 17.8586848,14.1811319 18.3197279,14.1681631 C18.780771,14.1551942 19.1604535,14.226523 19.4587755,14.3821495 C19.5943764,14.5248071 19.7231973,14.670707 19.8452381,14.819849 C19.9672789,14.9689911 20.0486395,15.1537976 20.0893197,15.3742684 C20.13,15.5558327 20.13339,15.7309125 20.0994898,15.8995078 C20.0655896,16.0681032 20.0282993,16.2366986 19.987619,16.405294 C19.9469388,16.5738893 19.9130385,16.7360003 19.8859184,16.8916268 C19.8587982,17.0472533 19.8723583,17.1899109 19.9265986,17.3195996 C20.1571202,17.3455374 20.3808617,17.3358107 20.5978231,17.2904197 C20.8147846,17.2450286 21.024966,17.1866687 21.2283673,17.1153399 C21.4317687,17.044011 21.6385601,16.96944 21.8487415,16.8916268 C22.0589229,16.8138135 22.2792744,16.7554536 22.5097959,16.716547 C22.8759184,16.6517026 23.2386508,16.6225226 23.5979932,16.629007 C23.9573356,16.6354915 24.2827778,16.6841248 24.5743197,16.7749069 C24.8658617,16.865689 25.1065533,17.0051044 25.2963946,17.1931531 C25.4862358,17.3812018 25.6014966,17.6243682 25.6421769,17.9226523 C25.6692971,18.1042165 25.655737,18.2728119 25.6014966,18.4284384 C25.5472562,18.5840649 25.4896259,18.7299648 25.4286054,18.8661379 C25.367585,19.0023111 25.3201247,19.1417265 25.2862245,19.2843841 C25.2523243,19.4270418 25.2624943,19.5761838 25.3167347,19.7318103 C25.357415,19.8225924 25.4557256,19.9068901 25.6116667,19.9847034 C25.7676077,20.0625166 25.9472789,20.1403299 26.1506803,20.2181431 C26.3540816,20.2959564 26.5676531,20.3802541 26.7913946,20.4710362 C27.0151361,20.5618183 27.2083673,20.6655693 27.3710884,20.7822892 Z M21.9191962,26.3010486 C22.260418,26.07621 22.6049208,25.7670571 22.9527045,25.3735896 C23.3004883,24.9801222 23.5826524,24.5409845 23.799197,24.0561764 C24.0157416,23.5713683 24.1371379,23.0514293 24.1633857,22.4963591 C24.1896335,21.941289 24.0583944,21.3827058 23.7696682,20.8206095 C23.5203138,20.3568801 23.2151828,19.9634126 22.8542752,19.6402073 C22.4933675,19.3170019 22.0898071,19.0605454 21.643594,18.8708379 C21.1973809,18.6811304 20.7216389,18.5441195 20.2163682,18.459805 C19.7110975,18.3754906 19.1959838,18.3333333 18.6710272,18.3333333 C17.6604857,18.3333333 16.7647785,18.4457526 15.9839056,18.6705911 C15.2030326,18.8954296 14.527151,19.1905302 13.9562607,19.5558928 C13.3853704,19.9212554 12.9227524,20.3358014 12.5684066,20.7995309 C12.2140609,21.2632604 11.9647065,21.734016 11.8203435,22.2117979 C11.6759804,22.6755273 11.6333277,23.1357437 11.6923853,23.592447 C11.7514429,24.0491502 11.8859631,24.4812618 12.0959457,24.8887816 C12.3059283,25.2963014 12.5782496,25.661664 12.9129094,25.9848694 C13.2475693,26.3080748 13.6183199,26.5680443 14.0251612,26.764778 C14.7732244,27.1160882 15.5376924,27.3374136 16.3185654,27.4287543 C17.0994384,27.5200949 17.8442205,27.523608 18.552912,27.4392936 C19.2616034,27.3549792 19.9079562,27.2074289 20.4919704,26.9966428 C21.0759846,26.7858566 21.5517266,26.5539919 21.9191962,26.3010486 L21.9191962,26.3010486 Z M20.2296806,20.261704 C20.5323899,20.3702627 20.8199637,20.4923912 21.092402,20.6280896 C21.3648403,20.7637879 21.6070077,20.9469807 21.8189042,21.1776679 C21.9702588,21.340506 22.1026941,21.5440535 22.2162101,21.7883106 C22.329726,22.0325676 22.4091872,22.293787 22.4545936,22.5719686 C22.5,22.8501502 22.5113516,23.1317243 22.4886484,23.4166909 C22.4659452,23.7016575 22.3940518,23.9594843 22.2729681,24.1901716 C22.1518844,24.4344286 22.0043136,24.6820781 21.8302558,24.9331201 C21.656198,25.1841621 21.4443015,25.4182417 21.1945664,25.6353591 C20.9448312,25.8524765 20.6459059,26.0458467 20.2977902,26.2154696 C19.9496746,26.3850926 19.5258816,26.5106136 19.0264114,26.5920326 C18.1182836,26.7413008 17.2479946,26.6666667 16.4155441,26.3681303 C15.5830937,26.0695939 14.9322688,25.5742949 14.4630695,24.8822332 C14.2814439,24.3530096 14.1830634,23.8848502 14.167928,23.4777552 C14.1527925,23.0706601 14.2738762,22.6296404 14.5311791,22.1546961 C14.7279401,21.7883106 15.0268654,21.4456722 15.4279552,21.126781 C15.829045,20.8078899 16.2906766,20.550063 16.81285,20.3533004 C17.3350235,20.1565378 17.8912517,20.0411941 18.4815347,20.0072696 C19.0718178,19.973345 19.6545331,20.0581564 20.2296806,20.261704 Z M16.7921921,24.9927341 C17.281916,25.0314854 17.6558268,24.9152316 17.9139245,24.6439728 C18.1720223,24.372714 18.310998,24.0691624 18.3308516,23.7333182 C18.3507053,23.3974739 18.2514369,23.0971517 18.0330466,22.8323514 C17.8146562,22.5675511 17.4738348,22.4609851 17.0105825,22.5126535 C16.6532164,22.5514047 16.375265,22.6999512 16.1767283,22.958293 C15.9781916,23.2166347 15.8656875,23.4911228 15.8392159,23.7817573 C15.8127443,24.0723917 15.8756143,24.3404213 16.0278258,24.5858459 C16.1800373,24.8312706 16.434826,24.9669 16.7921921,24.9927341 Z M24.0143021,10.8333333 C25.081394,10.8333333 26.0790518,10.9716247 27.0072756,11.2482073 C27.9354994,11.52479 28.7467816,11.9254803 29.4411222,12.4502782 C30.1354629,12.975076 30.6799721,13.6133437 31.0746499,14.3650812 C31.4693278,15.1168187 31.6666667,15.9678423 31.6666667,16.918152 C31.6666667,17.386215 31.5497251,17.7372622 31.3158419,17.9712937 C31.0819588,18.2053252 30.8298035,18.3258869 30.5593761,18.3329787 C30.2889487,18.3400706 30.0367934,18.2407845 29.8029103,18.0351205 C29.5690271,17.8294564 29.4520855,17.5138685 29.4520855,17.0883567 C29.4520855,16.5210077 29.2912908,15.9820261 28.9697015,15.4714119 C28.6481122,14.9607978 28.2241989,14.5140104 27.6979618,14.1310498 C27.1717247,13.7480891 26.5687447,13.4466849 25.8890218,13.2268372 C25.2092988,13.0069894 24.5186126,12.8970655 23.8169632,12.8970655 C23.3638146,12.8970655 23.0276075,12.7906876 22.8083421,12.5779317 C22.5890766,12.3651758 22.4867527,12.1275984 22.5013704,11.8651994 C22.5159881,11.6028005 22.6512018,11.3652231 22.9070115,11.1524672 C23.1628212,10.9397113 23.5319181,10.8333333 24.0143021,10.8333333 L24.0143021,10.8333333 Z M24.1519174,14.1666667 C25.5235988,14.1666667 26.5634218,14.490244 27.2713864,15.1373987 C27.979351,15.7845534 28.3333333,16.7620977 28.3333333,18.0700314 C28.3333333,18.4787607 28.259587,18.7682773 28.1120944,18.9385811 C27.9646018,19.108885 27.8023599,19.1838187 27.6253687,19.1633822 C27.4483776,19.1429458 27.2861357,19.0441695 27.1386431,18.8670535 C26.9911504,18.6899375 26.9174041,18.4515121 26.9174041,18.1517772 C26.9174041,17.347943 26.6666667,16.7076004 26.1651917,16.2307496 C25.6637168,15.7538987 24.9926254,15.5154733 24.1519174,15.5154733 C23.8716814,15.5154733 23.6651917,15.4439457 23.5324484,15.3008904 C23.399705,15.1578352 23.3333333,15.0045617 23.3333333,14.84107 C23.3333333,14.6775783 23.4033923,14.5243048 23.5435103,14.3812495 C23.6836283,14.2381943 23.8864307,14.1666667 24.1519174,14.1666667 L24.1519174,14.1666667 Z" id="形状"></path>
                    <path d="M20,39.0002272 C30.4930698,39.0002272 39.0002272,30.4930698 39.0002272,20 C39.0002272,9.50693024 30.4930698,0.999772779 20,0.999772779 C9.50693024,0.999772779 0.999772779,9.50693024 0.999772779,20 C0.999772779,30.4930698 9.50693024,39.0002272 20,39.0002272 Z M20,40 C8.95705521,40 0,31.0474892 0,20 C0,8.95251079 8.95251079,0 20,0 C31.0474892,0 40,8.95251079 40,20 C40,31.0474892 31.0429448,40 20,40 Z" id="形状"></path>
                </g>
            </g>
        </g>
    </g>
</svg>